<svg id="53c00847-3e14-485a-b183-15bcd1f3b6e3" data-name="Layer 1" xmlns="http://www.w3.org/2000/svg" viewBox="0 0 1398.95 768.01"><title>jqueery</title><path d="M759,662.77c-42.37,0-73.27,33-73.27,76.16,0,44,30.9,77,73.27,77,29.14,0,54.74-16.08,67.1-41.47V704.23C813.69,678.85,789,662.77,759,662.77Z" transform="translate(-85.08 -391.26)" style="fill:#efbdeb"/><path d="M360.81,774.46V704.23c-12.36-25.38-37.08-41.46-67.1-41.46-42.37,0-73.27,33-73.27,76.16,0,44,30.9,77,73.27,77C322.85,815.93,348.45,799.85,360.81,774.46Z" transform="translate(-85.08 -391.26)" style="fill:#efbdeb"/><path d="M1291.29,996.15V873.46c-26.49,31.31-60,43.16-98.88,43.16-104.17,0-166.85-81.23-166.85-177.69,0-93.93,62.68-176,166.85-176,38.84,0,72.39,11.84,98.88,42.31v-34.7h74.54l-.09-117.08c0-34.33-37.32-55.66-66.93-38.29-64.13,37.62-133.22,70-210.4,86a398.21,398.21,0,0,1-189-7.07c-100.6-28.72-183.74-55.35-284.15-84.42-58.92-17.88-123.57-22.78-185.62-14.56-82.27,10.86-158,40.82-228.27,76.22A44.47,44.47,0,0,0,176.87,511q0,37-.06,74c23.85-14,52.45-22.06,85.12-22.06,38.85,0,72.39,11.84,98.88,42.31v-34.7H487.05V975.85c0,16.92,12.36,24.53,26.48,24.53a47.45,47.45,0,0,0,30-10.15v54.36a454.32,454.32,0,0,1,93.37,21.86c85.08,28.39,158.46,44.26,244,71.9,59.85,19.91,126.94,26.58,190.5,15.76,87.56-14.85,165.23-51.66,236.61-94.38C1297.12,1041.69,1291.29,1019.75,1291.29,996.15Zm-282.5,86.31c-22.95,16.92-50.32,24.54-78.57,24.54-65.33,0-104.17-49.92-104.17-110.85V873.46c-26.49,31.31-60,43.16-98.88,43.16-104.17,0-166.85-81.23-166.85-177.69,0-93.93,62.68-176,166.85-176,38.85,0,72.39,11.84,98.88,42.31v-34.7H952.29V975.85c0,16.92,12.36,24.53,26.48,24.53a47.45,47.45,0,0,0,30-10.15Z" transform="translate(-85.08 -391.26)" style="fill:#efbdeb"/><path d="M1224.19,662.77c-42.37,0-73.27,33-73.27,76.16,0,44,30.9,77,73.27,77,29.14,0,54.74-16.08,67.1-41.47V704.23C1278.93,678.85,1254.21,662.77,1224.19,662.77Z" transform="translate(-85.08 -391.26)" style="fill:#efbdeb"/><path d="M360.81,996.15V873.46c-26.49,31.31-60,43.16-98.88,43.16-32.7,0-61.31-8-85.18-22q0,83.91.05,167.81c0,32.32,33.43,53.86,62.84,40.43,43-19.64,88.08-36.52,135.33-47.71C365.71,1038.05,360.81,1017.8,360.81,996.15Z" transform="translate(-85.08 -391.26)" style="fill:#efbdeb"/><path d="M543.55,990.23v92.23C520.6,1099.38,493.23,1107,465,1107c-65.33,0-104.17-49.92-104.17-110.85V873.46c-26.49,31.31-60,43.16-98.88,43.16-104.17,0-166.85-81.23-166.85-177.69,0-93.93,62.68-176,166.85-176,38.85,0,72.39,11.84,98.88,42.31v-34.7H487.05V975.85c0,16.92,12.36,24.53,26.48,24.53A47.45,47.45,0,0,0,543.55,990.23ZM360.81,774.46V704.23c-12.36-25.38-37.08-41.46-67.1-41.46-42.37,0-73.27,33-73.27,76.16,0,44,30.9,77,73.27,77C322.85,815.93,348.45,799.85,360.81,774.46Z" transform="translate(-85.08 -391.26)" style="fill:none;stroke:#efbdeb;stroke-miterlimit:10;stroke-width:20px"/><path d="M1008.79,990.23v92.23c-22.95,16.92-50.32,24.54-78.57,24.54-65.33,0-104.17-49.92-104.17-110.85V873.46c-26.49,31.31-60,43.16-98.88,43.16-104.17,0-166.85-81.23-166.85-177.69,0-93.93,62.68-176,166.85-176,38.85,0,72.39,11.84,98.88,42.31v-34.7H952.29V975.85c0,16.92,12.36,24.53,26.48,24.53A47.45,47.45,0,0,0,1008.79,990.23ZM826.05,774.46V704.23C813.69,678.85,789,662.77,759,662.77c-42.37,0-73.27,33-73.27,76.16,0,44,30.9,77,73.27,77C788.09,815.93,813.69,799.85,826.05,774.46Z" transform="translate(-85.08 -391.26)" style="fill:none;stroke:#efbdeb;stroke-miterlimit:10;stroke-width:20px"/><path d="M1474,990.23v92.23c-23,16.92-50.32,24.54-78.57,24.54-65.33,0-104.17-49.92-104.17-110.85V873.46c-26.49,31.31-60,43.16-98.88,43.16-104.17,0-166.85-81.23-166.85-177.69,0-93.93,62.68-176,166.85-176,38.84,0,72.39,11.84,98.88,42.31v-34.7h126.24V975.85c0,16.92,12.36,24.53,26.48,24.53A47.45,47.45,0,0,0,1474,990.23ZM1291.29,774.46V704.23c-12.36-25.38-37.08-41.46-67.1-41.46-42.37,0-73.27,33-73.27,76.16,0,44,30.9,77,73.27,77C1253.33,815.93,1278.93,799.85,1291.29,774.46Z" transform="translate(-85.08 -391.26)" style="fill:none;stroke:#efbdeb;stroke-miterlimit:10;stroke-width:20px"/></svg>